<svg viewBox="0 0 112 111" fill="none" xmlns="http://www.w3.org/2000/svg">
  <rect width="112.009" height="111" fill="#2B214F" />

  <!-- Path 1 (White Arrow) -->
  <path
    d="M33.6694 97.8186C32.2227 99.2542 29.8069 97.8594 30.3268 95.8888L40.5286 57.2198C40.8648 55.9452 42.3207 55.3388 43.4624 55.9979L61.6481 66.4975C62.7897 67.1566 62.9926 68.7206 62.0569 69.6492L33.6694 97.8186Z"
    fill="white">
    <!-- Rotate 360° around center (55.4679, 55.4647) -->
    <animateTransform attributeName="transform" type="rotate"
      values="0 55.4679 55.4647; 0 55.4679 55.4647; 212 55.4679 55.4647; 280 55.4679 55.4647; 318 55.4679 55.4647; 338 55.4679 55.4647; 352 55.4679 55.4647; 356 55.4679 55.4647; 359 55.4679 55.4647; 360 55.4679 55.4647"
      keyTimes="0; 0.167; 0.3; 0.367; 0.433; 0.5; 0.6; 0.667; 0.767; 1" dur="3s" repeatCount="indefinite" />
  </path>

  <!-- Path 2 (Cyan Arrow) -->
  <path
    d="M80.8791 16.0497C81.399 14.079 78.9832 12.6843 77.5365 14.1198L49.149 42.2893C48.2133 43.2178 48.4162 44.7819 49.5578 45.441L67.7435 55.9405C68.8852 56.5996 70.3411 55.9933 70.6774 54.7187L80.8791 16.0497Z"
    fill="#40E2C8">
    <!-- Rotate 360° around center (55.4679, 55.4647) -->
    <animateTransform attributeName="transform" type="rotate"
      values="0 55.4679 55.4647; 0 55.4679 55.4647; 212 55.4679 55.4647; 280 55.4679 55.4647; 318 55.4679 55.4647; 338 55.4679 55.4647; 352 55.4679 55.4647; 356 55.4679 55.4647; 359 55.4679 55.4647; 360 55.4679 55.4647"
      keyTimes="0; 0.167; 0.3; 0.367; 0.433; 0.5; 0.6; 0.667; 0.767; 1" dur="3s" repeatCount="indefinite" />
  </path>

  <!-- Circle -->
  <circle cx="55.4679" cy="55.4647" r="13.0149" transform="rotate(-150 55.4679 55.4647)" fill="#40E2C8" stroke="white"
    stroke-width="5" />

  <!-- Path 3 (Outer White Path) -->
  <path fill-rule="evenodd" clip-rule="evenodd"
    d="M56.5 99.1716C79.9721 99.1716 99 80.1437 99 56.6716C99 43.55 93.0535 31.8173 83.7084 24.0213C82.315 22.8589 81.8696 20.8671 82.7769 19.2957V19.2957C83.8078 17.5102 86.1531 16.9794 87.7512 18.282C98.8877 27.3587 106 41.1845 106 56.6716C106 84.0097 83.8381 106.172 56.5 106.172C50.3105 106.172 44.3864 105.036 38.9247 102.961C36.9974 102.229 36.2853 99.932 37.3162 98.1464V98.1464C38.2238 96.5743 40.1721 95.9643 41.8765 96.5888C46.436 98.2597 51.3615 99.1716 56.5 99.1716ZM28.8274 92.8495C29.7086 91.3231 29.3193 89.3923 28.0118 88.2105C19.4069 80.4331 14 69.1838 14 56.6716C14 33.1995 33.0279 14.1716 56.5 14.1716C61.0421 14.1716 65.4178 14.8841 69.5214 16.2035C71.1996 16.7431 73.0665 16.1147 73.9479 14.588V14.588C75.0081 12.7518 74.2268 10.3913 72.216 9.71856C67.2783 8.06653 61.9936 7.1716 56.5 7.1716C29.1619 7.1716 7 29.3335 7 56.6716C7 71.4496 13.4759 84.715 23.7447 93.7849C25.3334 95.1882 27.7676 94.6851 28.8274 92.8495V92.8495Z"
    fill="white">
    <!-- Rotation animations -->
    <animateTransform attributeName="transform" type="rotate"
      values="0 55.4679 55.4647; -10 55.4679 55.4647; 20 55.4679 55.4647; 0 55.4679 55.4647; 0 55.4679 55.4647"
      keyTimes="0; 0.1; 0.2; 0.83; 1" dur="3s" repeatCount="indefinite" keySplines="0.42 0 0.58 1" />
  </path>
</svg>